<svg preserveAspectRatio="none" width="100%" height="100%" overflow="visible" style="display: block;" viewBox="0 0 57.0548 16.2366" fill="none" xmlns="http://www.w3.org/2000/svg">
<g id="logo">
<path id="46" fill-rule="evenodd" clip-rule="evenodd" d="M5.35205 12.5034L7.72765 15.4452H1.84608L5.35205 12.5034ZM4.60501 11.5946L0.00415019 15.4542L0.00226374 5.96204L4.60501 11.5946ZM15.6751 2.03661C15.6751 2.03661 14.6651 1.55847 13.4917 1.6283C12.1502 1.7073 11.028 2.22176 10.3828 2.90058C9.97687 3.32705 9.52808 3.84731 9.30265 4.41231C8.97573 5.22967 8.90593 6.30968 8.90593 6.30968C8.90593 6.30968 8.43677 5.91149 7.84895 4.75116C7.16549 3.40156 6.97854 2.58401 6.88592 1.65133C6.80348 0.832843 6.93289 0.0235324 6.93289 0.0235324H15.6751V2.03661ZM15.6751 4.72757V10.7127C15.6751 10.7127 15.1316 10.9214 14.6883 10.9214C14.245 10.9214 13.49 10.8557 12.6132 10.3736C11.7428 9.89551 11.261 9.31703 10.8875 8.79284C10.5087 8.25967 10.1959 7.52056 10.1029 6.98795C10.0282 6.56186 9.94763 5.49906 10.3828 4.63527C10.619 4.1665 11.2529 3.36299 12.4732 3.31731C13.4679 3.27912 14.0195 3.54066 14.5251 3.8181C15.4872 4.34716 15.6751 4.72757 15.6751 4.72757V4.72757ZM6.15586 10.2924L7.73275 8.978C7.2302 8.33605 7.09739 8.09417 6.5356 7.26539C5.96043 6.41714 5.47863 5.4839 5.06663 4.38891C4.62067 3.20274 4.51295 2.53683 4.56219 1.65133C4.62388 0.524695 4.88006 0.0235324 4.88006 0.0235324H0L0.00226374 2.65365C0.00226374 2.65365 3.73781 7.33504 6.15586 10.2924V10.2924ZM10.6615 15.4409H15.6751V11.7852C15.6751 11.7852 14.4315 12.3556 13.6232 12.4017C13.142 12.4298 12.6749 12.4483 11.9212 12.2478C11.0835 12.0252 10.6075 11.8082 9.83104 11.1678C9.20738 10.6541 8.49431 9.89551 8.49431 9.89551L6.90818 11.218C7.64408 12.1181 8.18757 12.7733 8.35395 12.9497C9.06929 13.7056 9.37245 13.9834 9.85425 14.2528C10.3359 14.5228 11.945 14.5082 11.945 14.5082L10.6615 15.4409Z" fill="var(--fill-0, #E94E0F)"/>
<path id="BNI" fill-rule="evenodd" clip-rule="evenodd" d="M53.593 12.1891C53.593 13.2483 53.7358 14.9894 52.5496 15.4132V15.4838H57.0548V15.4132C55.8694 14.9662 56.0116 13.2483 56.0116 12.1891V3.31774C56.0116 2.25907 55.8694 0.517637 57.0548 0.0705783V0H52.5496V0.0705783C53.759 0.517637 53.593 2.23548 53.593 3.31774V12.1891ZM37.0732 3.31774L45.2066 13.5542C46.2496 14.8952 46.9852 15.6721 48.6686 16.2366V3.03543C48.6686 1.71784 48.6686 0.776362 49.902 0.0705783V0H45.7282V0.0705783C46.9852 0.776362 46.961 1.71784 46.961 3.03543V11.9539L38.2828 1.08226L37.9504 0.611617C37.7848 0.42347 37.6901 0.305902 37.5952 0.0235885V0H34.1326V0.0705783C35.3658 0.776362 35.3658 1.71784 35.3658 3.03543V12.425C35.3658 13.7424 35.3658 14.6835 34.1094 15.4132V15.4838H38.3065V15.4132C37.0496 14.6835 37.0732 13.7424 37.0732 12.425V3.31774ZM23.8154 6.23598V1.62386L25.4038 1.45874C26.8267 1.31759 28.344 2.1649 28.344 3.78877C28.344 5.71834 26.1388 6.23598 24.5979 6.23598H23.8154ZM23.8154 13.6012V7.7887L25.4749 7.69472C27.5617 7.57697 29.7905 8.56563 29.7905 10.8481C29.7905 13.0836 27.823 13.9777 25.8781 13.7895L23.8154 13.6012ZM21.3964 12.1657C21.3964 13.2483 21.5388 14.9662 20.3528 15.4132V15.4838H24.2655C26.0439 15.4838 27.9177 15.5546 29.5772 14.7544C31.166 14.0013 32.4229 12.448 32.4229 10.636C32.4229 8.3303 30.6915 6.91818 28.5574 6.47074C29.9092 5.88271 30.9285 4.9886 30.9285 3.41191C30.9285 1.31759 29.1031 0 25.9733 0H20.3528V0.0705783C21.5628 0.517637 21.3964 2.23548 21.3964 3.29416V12.1657Z" fill="var(--fill-0, #005B6A)"/>
</g>
</svg>
